<svg width="150" height="150" viewBox="0 0 150 150" fill="none" xmlns="http://www.w3.org/2000/svg">
<g clip-path="url(#clip0_101_2)">
<line y1="-2.5" x2="31.1272" y2="-2.5" transform="matrix(-0.761817 0.647792 0.74614 0.665789 122.181 28.0327)" stroke="#74BC6B" stroke-width="5"/>
<line y1="-2.5" x2="43.6252" y2="-2.5" transform="matrix(-0.983598 0.180374 0.234925 0.972014 134.603 41.8032)" stroke="#74BC6B" stroke-width="5"/>
<line y1="-2.5" x2="81.0228" y2="-2.5" transform="matrix(-0.780462 0.625203 0.726022 0.687671 137.99 65.9016)" stroke="#74BC6B" stroke-width="5"/>
<path d="M140.607 89.0164L103.908 90.4918" stroke="#74BC6B" stroke-width="5"/>
<line y1="-2.5" x2="141.148" y2="-2.5" transform="matrix(0.00391037 0.999992 0.999996 -0.00299924 91.6931 8.85254)" stroke="#74BC6B" stroke-width="5"/>
<mask id="path-6-inside-1_101_2" fill="white">
    <ellipse rx="5.646" ry="4.91803" transform="matrix(-1 0 0 1 87.894 4.91803)"/>
</mask>
<path d="M87.248 4.91803C87.248 4.80852 87.2201 4.71127 87.1895 4.64835C87.1623 4.59226 87.1479 4.59234 87.1858 4.62538C87.269 4.6978 87.5042 4.83607 87.894 4.83607V14.8361C82.6849 14.8361 77.248 11.0215 77.248 4.91803H87.248ZM87.894 4.83607C88.2839 4.83607 88.5191 4.6978 88.6023 4.62538C88.6402 4.59234 88.6258 4.59226 88.5986 4.64835C88.568 4.71127 88.54 4.80852 88.54 4.91803H98.54C98.54 11.0215 93.1032 14.8361 87.894 14.8361V4.83607ZM88.54 4.91803C88.54 5.02754 88.568 5.12479 88.5986 5.18771C88.6258 5.2438 88.6402 5.24372 88.6023 5.21069C88.5191 5.13827 88.2839 5 87.894 5V-5C93.1032 -5 98.54 -1.18539 98.54 4.91803H88.54ZM87.894 5C87.5042 5 87.269 5.13827 87.1858 5.21069C87.1479 5.24372 87.1623 5.2438 87.1895 5.18771C87.2201 5.12479 87.248 5.02754 87.248 4.91803H77.248C77.248 -1.18539 82.6849 -5 87.894 -5V5Z" fill="#74BC6B" mask="url(#path-6-inside-1_101_2)"/>
<mask id="path-8-inside-2_101_2" fill="white">
    <ellipse rx="5.646" ry="4.91803" transform="matrix(-1 0 0 1 122.335 24.0987)"/>
</mask>
<path d="M121.689 24.0987C121.689 23.9892 121.661 23.8919 121.63 23.829C121.603 23.7729 121.589 23.773 121.626 23.806C121.71 23.8785 121.945 24.0167 122.335 24.0167V34.0167C117.126 34.0167 111.689 30.2021 111.689 24.0987H121.689ZM122.335 24.0167C122.725 24.0167 122.96 23.8785 123.043 23.806C123.081 23.773 123.066 23.7729 123.039 23.829C123.009 23.8919 122.981 23.9892 122.981 24.0987H132.981C132.981 30.2021 127.544 34.0167 122.335 34.0167V24.0167ZM122.981 24.0987C122.981 24.2082 123.009 24.3055 123.039 24.3684C123.066 24.4245 123.081 24.4244 123.043 24.3913C122.96 24.3189 122.725 24.1807 122.335 24.1807V14.1807C127.544 14.1807 132.981 17.9953 132.981 24.0987H122.981ZM122.335 24.1807C121.945 24.1807 121.71 24.3189 121.626 24.3913C121.589 24.4244 121.603 24.4245 121.63 24.3684C121.661 24.3055 121.689 24.2082 121.689 24.0987H111.689C111.689 17.9953 117.126 14.1807 122.335 14.1807V24.1807Z" fill="#74BC6B" mask="url(#path-8-inside-2_101_2)"/>
<mask id="path-10-inside-3_101_2" fill="white">
    <ellipse rx="5.646" ry="4.91803" transform="matrix(-1 0 0 1 136.296 38.1815)"/>
</mask>
<path d="M135.65 38.1815C135.65 38.0719 135.622 37.9747 135.592 37.9118C135.565 37.8557 135.55 37.8558 135.588 37.8888C135.671 37.9612 135.907 38.0995 136.296 38.0995V48.0995C131.087 48.0995 125.65 44.2849 125.65 38.1815H135.65ZM136.296 38.0995C136.686 38.0995 136.921 37.9612 137.005 37.8888C137.043 37.8558 137.028 37.8557 137.001 37.9118C136.97 37.9747 136.942 38.0719 136.942 38.1815H146.942C146.942 44.2849 141.506 48.0995 136.296 48.0995V38.0995ZM136.942 38.1815C136.942 38.291 136.97 38.3882 137.001 38.4511C137.028 38.5072 137.043 38.5071 137.005 38.4741C136.921 38.4017 136.686 38.2634 136.296 38.2634V28.2634C141.506 28.2634 146.942 32.078 146.942 38.1815H136.942ZM136.296 38.2634C135.907 38.2634 135.671 38.4017 135.588 38.4741C135.55 38.5071 135.565 38.5072 135.592 38.4511C135.622 38.3882 135.65 38.291 135.65 38.1815H125.65C125.65 32.078 131.087 28.2634 136.296 28.2634V38.2634Z" fill="#74BC6B" mask="url(#path-10-inside-3_101_2)"/>
<mask id="path-12-inside-4_101_2" fill="white">
    <ellipse rx="5.646" ry="4.91803" transform="matrix(-1 0 0 1 138.143 61.9671)"/>
</mask>
<path d="M137.497 61.9671C137.497 61.8576 137.469 61.7603 137.439 61.6974C137.412 61.6413 137.397 61.6414 137.435 61.6745C137.518 61.7469 137.754 61.8851 138.143 61.8851V71.8851C132.934 71.8851 127.497 68.0705 127.497 61.9671H137.497ZM138.143 61.8851C138.533 61.8851 138.769 61.7469 138.852 61.6745C138.89 61.6414 138.875 61.6413 138.848 61.6974C138.817 61.7603 138.789 61.8576 138.789 61.9671H148.789C148.789 68.0705 143.353 71.8851 138.143 71.8851V61.8851ZM138.789 61.9671C138.789 62.0766 138.817 62.1739 138.848 62.2368C138.875 62.2929 138.89 62.2928 138.852 62.2598C138.769 62.1873 138.533 62.0491 138.143 62.0491V52.0491C143.353 52.0491 148.789 55.8637 148.789 61.9671H138.789ZM138.143 62.0491C137.754 62.0491 137.518 62.1873 137.435 62.2598C137.397 62.2928 137.412 62.2929 137.439 62.2368C137.469 62.1739 137.497 62.0766 137.497 61.9671H127.497C127.497 55.8637 132.934 52.0491 138.143 52.0491V62.0491Z" fill="#74BC6B" mask="url(#path-12-inside-4_101_2)"/>
<mask id="path-14-inside-5_101_2" fill="white">
    <ellipse rx="5.646" ry="4.91803" transform="matrix(-1 0 0 1 144.354 88.5245)"/>
</mask>
<path d="M143.708 88.5245C143.708 88.415 143.68 88.3177 143.649 88.2548C143.622 88.1987 143.608 88.1988 143.646 88.2318C143.729 88.3042 143.964 88.4425 144.354 88.4425V98.4425C139.145 98.4425 133.708 94.6279 133.708 88.5245H143.708ZM144.354 88.4425C144.744 88.4425 144.979 88.3042 145.062 88.2318C145.1 88.1988 145.086 88.1987 145.059 88.2548C145.028 88.3177 145 88.415 145 88.5245H155C155 94.6279 149.563 98.4425 144.354 98.4425V88.4425ZM145 88.5245C145 88.634 145.028 88.7312 145.059 88.7942C145.086 88.8502 145.1 88.8502 145.062 88.8171C144.979 88.7447 144.744 88.6064 144.354 88.6064V78.6064C149.563 78.6064 155 82.4211 155 88.5245H145ZM144.354 88.6064C143.964 88.6064 143.729 88.7447 143.646 88.8171C143.608 88.8502 143.622 88.8502 143.649 88.7942C143.68 88.7312 143.708 88.634 143.708 88.5245H133.708C133.708 82.4211 139.145 78.6064 144.354 78.6064V88.6064Z" fill="#74BC6B" mask="url(#path-14-inside-5_101_2)"/>
<line y1="-2.5" x2="31.1272" y2="-2.5" transform="matrix(0.761817 0.647792 -0.74614 0.665789 27.8186 28.0327)" stroke="#74BC6B" stroke-width="5"/>
<line y1="-2.5" x2="43.6252" y2="-2.5" transform="matrix(0.983598 0.180374 -0.234925 0.972014 15.3973 41.8032)" stroke="#74BC6B" stroke-width="5"/>
<line y1="-2.5" x2="81.0228" y2="-2.5" transform="matrix(0.780462 0.625203 -0.726022 0.687671 12.0098 65.9016)" stroke="#74BC6B" stroke-width="5"/>
<path d="M9.39258 89.0164L46.0919 90.4918" stroke="#74BC6B" stroke-width="5"/>
<line y1="-2.5" x2="141.148" y2="-2.5" transform="matrix(-0.00391037 0.999992 -0.999996 -0.00299924 58.3069 8.85254)" stroke="#74BC6B" stroke-width="5"/>
<mask id="path-21-inside-6_101_2" fill="white">
    <ellipse cx="62.106" cy="4.91803" rx="5.646" ry="4.91803"/>
</mask>
<path d="M62.752 4.91803C62.752 4.80852 62.7799 4.71127 62.8105 4.64835C62.8377 4.59226 62.8521 4.59234 62.8142 4.62538C62.731 4.6978 62.4958 4.83607 62.106 4.83607V14.8361C67.3151 14.8361 72.752 11.0215 72.752 4.91803H62.752ZM62.106 4.83607C61.7161 4.83607 61.4809 4.6978 61.3977 4.62538C61.3598 4.59234 61.3742 4.59226 61.4014 4.64835C61.432 4.71127 61.46 4.80852 61.46 4.91803H51.46C51.46 11.0215 56.8968 14.8361 62.106 14.8361V4.83607ZM61.46 4.91803C61.46 5.02754 61.432 5.12479 61.4014 5.18771C61.3742 5.2438 61.3598 5.24372 61.3977 5.21069C61.4809 5.13827 61.7161 5 62.106 5V-5C56.8968 -5 51.46 -1.18539 51.46 4.91803H61.46ZM62.106 5C62.4958 5 62.731 5.13827 62.8142 5.21069C62.8521 5.24372 62.8377 5.2438 62.8105 5.18771C62.7799 5.12479 62.752 5.02754 62.752 4.91803H72.752C72.752 -1.18539 67.3151 -5 62.106 -5V5Z" fill="#74BC6B" mask="url(#path-21-inside-6_101_2)"/>
<mask id="path-23-inside-7_101_2" fill="white">
    <ellipse cx="27.6655" cy="24.0987" rx="5.646" ry="4.91803"/>
</mask>
<path d="M28.3115 24.0987C28.3115 23.9892 28.3395 23.8919 28.3701 23.829C28.3973 23.7729 28.4117 23.773 28.3737 23.806C28.2906 23.8785 28.0554 24.0167 27.6655 24.0167V34.0167C32.8747 34.0167 38.3115 30.2021 38.3115 24.0987H28.3115ZM27.6655 24.0167C27.2757 24.0167 27.0405 23.8785 26.9573 23.806C26.9194 23.773 26.9338 23.7729 26.961 23.829C26.9916 23.8919 27.0195 23.9892 27.0195 24.0987H17.0195C17.0195 30.2021 22.4564 34.0167 27.6655 34.0167V24.0167ZM27.0195 24.0987C27.0195 24.2082 26.9916 24.3055 26.961 24.3684C26.9338 24.4245 26.9194 24.4244 26.9573 24.3913C27.0405 24.3189 27.2757 24.1807 27.6655 24.1807V14.1807C22.4564 14.1807 17.0195 17.9953 17.0195 24.0987H27.0195ZM27.6655 24.1807C28.0554 24.1807 28.2906 24.3189 28.3737 24.3913C28.4117 24.4244 28.3973 24.4245 28.3701 24.3684C28.3395 24.3055 28.3115 24.2082 28.3115 24.0987H38.3115C38.3115 17.9953 32.8747 14.1807 27.6655 14.1807V24.1807Z" fill="#74BC6B" mask="url(#path-23-inside-7_101_2)"/>
<mask id="path-25-inside-8_101_2" fill="white">
    <ellipse cx="13.7036" cy="38.1815" rx="5.646" ry="4.91803"/>
</mask>
<path d="M14.3496 38.1815C14.3496 38.0719 14.3776 37.9747 14.4081 37.9118C14.4354 37.8557 14.4498 37.8558 14.4118 37.8888C14.3287 37.9612 14.0935 38.0995 13.7036 38.0995V48.0995C18.9128 48.0995 24.3496 44.2849 24.3496 38.1815H14.3496ZM13.7036 38.0995C13.3138 38.0995 13.0785 37.9612 12.9954 37.8888C12.9575 37.8558 12.9719 37.8557 12.9991 37.9118C13.0297 37.9747 13.0576 38.0719 13.0576 38.1815H3.05762C3.05762 44.2849 8.49446 48.0995 13.7036 48.0995V38.0995ZM13.0576 38.1815C13.0576 38.291 13.0297 38.3882 12.9991 38.4511C12.9719 38.5072 12.9575 38.5071 12.9954 38.4741C13.0785 38.4017 13.3138 38.2634 13.7036 38.2634V28.2634C8.49446 28.2634 3.05762 32.078 3.05762 38.1815H13.0576ZM13.7036 38.2634C14.0935 38.2634 14.3287 38.4017 14.4118 38.4741C14.4498 38.5071 14.4354 38.5072 14.4081 38.4511C14.3776 38.3882 14.3496 38.291 14.3496 38.1815H24.3496C24.3496 32.078 18.9128 28.2634 13.7036 28.2634V38.2634Z" fill="#74BC6B" mask="url(#path-25-inside-8_101_2)"/>
<mask id="path-27-inside-9_101_2" fill="white">
    <ellipse cx="11.8566" cy="61.9671" rx="5.646" ry="4.91803"/>
</mask>
<path d="M12.5026 61.9671C12.5026 61.8576 12.5305 61.7603 12.5611 61.6974C12.5883 61.6413 12.6027 61.6414 12.5648 61.6745C12.4817 61.7469 12.2464 61.8851 11.8566 61.8851V71.8851C17.0657 71.8851 22.5026 68.0705 22.5026 61.9671H12.5026ZM11.8566 61.8851C11.4667 61.8851 11.2315 61.7469 11.1484 61.6745C11.1104 61.6414 11.1248 61.6413 11.1521 61.6974C11.1826 61.7603 11.2106 61.8576 11.2106 61.9671H1.21057C1.21057 68.0705 6.64741 71.8851 11.8566 71.8851V61.8851ZM11.2106 61.9671C11.2106 62.0766 11.1826 62.1739 11.1521 62.2368C11.1248 62.2929 11.1104 62.2928 11.1484 62.2598C11.2315 62.1873 11.4667 62.0491 11.8566 62.0491V52.0491C6.64741 52.0491 1.21057 55.8637 1.21057 61.9671H11.2106ZM11.8566 62.0491C12.2464 62.0491 12.4817 62.1873 12.5648 62.2598C12.6027 62.2928 12.5883 62.2929 12.5611 62.2368C12.5305 62.1739 12.5026 62.0766 12.5026 61.9671H22.5026C22.5026 55.8637 17.0657 52.0491 11.8566 52.0491V62.0491Z" fill="#74BC6B" mask="url(#path-27-inside-9_101_2)"/>
<mask id="path-29-inside-10_101_2" fill="white">
    <ellipse cx="5.646" cy="88.5245" rx="5.646" ry="4.91803"/>
</mask>
<path d="M6.29201 88.5245C6.29201 88.415 6.31997 88.3177 6.35052 88.2548C6.37776 88.1987 6.39214 88.1988 6.35422 88.2318C6.27108 88.3042 6.03583 88.4425 5.646 88.4425V98.4425C10.8552 98.4425 16.292 94.6279 16.292 88.5245H6.29201ZM5.646 88.4425C5.25617 88.4425 5.02092 88.3042 4.93779 88.2318C4.89986 88.1988 4.91425 88.1987 4.94148 88.2548C4.97204 88.3177 5 88.415 5 88.5245H-5C-5 94.6279 0.436838 98.4425 5.646 98.4425V88.4425ZM5 88.5245C5 88.634 4.97204 88.7312 4.94148 88.7942C4.91425 88.8502 4.89986 88.8502 4.93779 88.8171C5.02092 88.7447 5.25617 88.6064 5.646 88.6064V78.6064C0.436838 78.6064 -5 82.4211 -5 88.5245H5ZM5.646 88.6064C6.03583 88.6064 6.27108 88.7447 6.35422 88.8171C6.39214 88.8502 6.37776 88.8502 6.35052 88.7942C6.31997 88.7312 6.29201 88.634 6.29201 88.5245H16.292C16.292 82.4211 10.8552 78.6064 5.646 78.6064V88.6064Z" fill="#74BC6B" mask="url(#path-29-inside-10_101_2)"/>
</g>
<defs>
<clipPath id="clip0_101_2">
    <rect width="150" height="150" fill="white"/>
</clipPath>
</defs>
        </svg>